<?xml version="1.0" encoding="UTF-8" ?>
<!DOCTYPE svg PUBLIC "-//W3C//DTD SVG 1.1//EN" "http://www.w3.org/Graphics/SVG/1.1/DTD/svg11.dtd">
<svg width="372pt" height="292pt" viewBox="0 0 372 292" version="1.1" xmlns="http://www.w3.org/2000/svg">
<path fill="#ffffff" d=" M 0.00 0.00 L 372.00 0.00 L 372.00 201.62 C 370.28 194.72 367.72 187.57 362.20 182.78 C 354.67 176.20 343.65 174.80 334.20 177.20 C 327.19 178.94 321.63 183.84 316.96 189.11 C 316.85 185.76 316.80 182.42 316.73 179.07 C 312.10 178.96 307.46 178.94 302.83 179.03 C 302.58 205.08 302.57 231.14 302.84 257.19 C 307.62 257.36 312.41 257.35 317.20 257.18 C 317.66 242.79 317.16 228.38 317.38 213.99 C 317.50 206.58 320.30 198.96 326.01 194.05 C 331.81 189.03 340.54 188.76 347.41 191.52 C 354.15 194.39 357.07 202.06 357.12 208.96 C 357.39 225.01 357.05 241.07 357.21 257.13 C 362.14 257.31 367.07 257.34 372.00 257.29 L 372.00 292.00 L 107.96 292.00 C 108.01 277.00 108.11 262.00 107.86 247.01 C 112.80 252.47 118.83 257.32 126.22 258.83 C 138.17 261.89 151.56 258.03 159.98 248.99 C 172.20 237.16 174.85 218.03 169.65 202.33 C 165.37 190.10 154.99 179.62 142.12 176.86 C 133.65 175.16 124.37 176.25 116.99 180.95 C 113.50 183.12 110.64 186.11 107.79 189.04 C 107.69 185.73 107.64 182.43 107.60 179.12 C 102.83 178.95 98.06 178.94 93.29 179.09 C 93.29 216.73 93.36 254.36 93.26 292.00 L 0.00 292.00 L 0.00 0.00 Z" />
<path fill="#4c8cf5" d=" M 0.93 0.97 C 7.81 0.55 14.72 0.44 21.60 1.05 C 35.40 25.94 50.03 50.37 64.14 75.09 C 60.87 81.03 57.62 86.99 53.91 92.67 C 50.50 87.36 47.35 81.89 44.19 76.43 C 40.72 70.18 37.24 63.94 33.50 57.86 C 24.73 42.83 16.11 27.71 7.34 12.68 C 5.04 8.87 2.87 4.98 0.93 0.97 Z" />
<path fill="#dd4d41" d=" M 21.60 1.05 C 28.01 0.53 34.45 0.44 40.86 0.98 C 50.66 17.33 59.96 33.97 69.63 50.39 C 71.68 53.70 73.11 57.81 71.67 61.65 C 69.78 66.44 66.70 70.64 64.14 75.09 C 50.03 50.37 35.40 25.94 21.60 1.05 Z" />
<path fill="#6e6e6e" d=" M 100.44 38.37 C 107.44 23.08 123.18 12.29 139.93 11.11 C 153.14 9.79 166.58 14.67 176.05 23.92 C 173.14 27.02 170.10 30.01 166.98 32.90 C 158.14 25.26 145.69 21.68 134.35 25.25 C 118.21 29.53 107.52 47.16 110.51 63.46 C 112.37 76.09 121.92 87.28 134.26 90.74 C 145.27 93.79 158.20 91.73 166.52 83.50 C 171.09 79.31 173.35 73.29 174.21 67.27 C 164.16 67.03 154.11 67.41 144.07 67.09 C 143.96 62.74 143.96 58.39 144.05 54.04 C 155.70 53.86 167.35 54.10 179.00 53.92 C 181.55 53.93 184.13 53.82 186.66 54.27 C 187.76 55.12 187.40 56.75 187.66 57.96 C 188.22 67.92 186.36 78.36 180.70 86.74 C 175.77 93.88 168.62 99.54 160.39 102.39 C 146.36 107.25 130.09 105.49 117.64 97.31 C 107.53 90.84 100.11 80.39 97.23 68.75 C 94.87 58.65 95.86 47.72 100.44 38.37 Z" />
<path fill="#6e6e6e" d=" M 284.05 39.00 C 291.50 22.11 309.54 10.61 328.00 10.98 C 339.74 10.76 351.48 15.52 359.70 23.91 C 356.93 27.05 353.98 30.02 350.93 32.89 C 344.94 28.10 337.85 24.30 330.05 23.98 C 318.51 23.08 306.77 28.66 300.22 38.20 C 290.94 51.04 292.23 70.28 303.37 81.62 C 315.41 95.05 339.08 95.86 351.44 82.47 C 355.46 78.40 357.22 72.79 358.17 67.28 C 348.13 67.02 338.09 67.40 328.06 67.10 C 327.96 62.74 327.95 58.39 328.05 54.04 C 342.38 53.96 356.71 53.91 371.05 54.06 C 371.52 63.07 371.76 72.49 367.84 80.86 C 362.60 92.92 350.89 101.74 338.02 104.07 C 326.09 106.47 313.24 104.50 302.85 98.09 C 291.21 91.13 282.78 79.00 280.50 65.62 C 279.13 56.65 280.12 47.24 284.05 39.00 Z" />
<path fill="#6e6e6e" d=" M 198.10 13.10 C 214.26 13.65 231.30 10.80 246.61 17.42 C 259.29 22.74 268.39 35.03 270.46 48.53 C 271.36 54.79 271.36 61.21 270.47 67.47 C 268.55 79.44 261.32 90.67 250.59 96.55 C 243.18 100.84 234.57 102.73 226.06 102.70 C 216.76 102.70 207.46 102.67 198.16 102.72 C 197.93 72.85 198.05 42.98 198.10 13.10 Z" />
<path fill="#ffffff" d=" M 211.94 27.03 C 222.42 27.09 233.68 25.59 243.30 30.73 C 251.19 34.69 256.11 43.04 257.27 51.62 C 258.51 60.82 257.37 70.96 251.48 78.47 C 246.47 85.11 238.09 88.28 230.02 88.91 C 223.99 89.25 217.95 89.00 211.92 88.95 C 211.78 68.31 211.74 47.67 211.94 27.03 Z" />
<path fill="#159e5c" d=" M 33.50 57.86 C 37.24 63.94 40.72 70.18 44.19 76.43 C 35.91 89.14 29.00 102.70 21.00 115.60 C 14.28 115.57 7.56 115.63 0.84 115.55 C 1.55 114.03 2.26 112.52 3.04 111.03 C 13.10 93.25 23.84 75.85 33.50 57.86 Z" />
<path fill="#ffc10a" d=" M 21.00 115.60 C 29.00 102.70 35.91 89.14 44.19 76.43 C 47.35 81.89 50.50 87.36 53.91 92.67 C 49.74 100.44 45.27 108.05 40.66 115.57 C 34.11 115.63 27.56 115.60 21.00 115.60 Z" />
<path fill="#6e6e6e" d=" M 8.60 155.65 C 13.92 147.14 23.28 141.50 33.20 140.34 C 42.53 139.27 52.54 140.28 60.63 145.35 C 67.17 149.66 72.94 155.76 75.10 163.44 C 70.69 165.33 66.25 167.16 61.70 168.69 C 59.28 163.05 55.09 157.92 49.16 155.82 C 40.28 152.54 28.93 154.14 22.67 161.70 C 18.00 167.12 18.68 176.21 24.32 180.72 C 33.60 188.57 46.24 189.79 56.82 195.18 C 64.40 199.07 72.36 203.95 75.85 212.12 C 80.28 222.64 79.86 235.67 73.11 245.14 C 69.04 250.96 62.65 254.66 56.10 257.09 C 48.48 259.72 40.13 260.79 32.21 258.90 C 17.23 255.70 3.69 244.24 0.36 228.93 C 4.68 226.74 9.18 224.93 13.71 223.25 C 16.09 230.40 20.21 237.24 26.70 241.35 C 36.08 247.91 49.75 246.79 58.26 239.28 C 64.01 234.36 64.66 225.64 62.01 218.94 C 59.88 213.68 54.82 210.51 49.93 208.14 C 41.39 203.81 31.77 202.21 23.26 197.80 C 17.34 194.76 11.59 190.76 8.10 184.95 C 2.68 176.15 3.04 164.31 8.60 155.65 Z" />
<path fill="#6e6e6e" d=" M 274.38 141.27 C 280.17 140.20 286.47 144.97 286.49 151.01 C 287.27 157.27 281.25 163.12 275.00 162.08 C 269.04 161.91 264.68 155.70 265.82 150.00 C 266.24 145.55 270.13 142.09 274.38 141.27 Z" />
<path fill="#6e6e6e" d=" M 116.99 180.95 C 124.37 176.25 133.65 175.16 142.12 176.86 C 154.99 179.62 165.37 190.10 169.65 202.33 C 174.85 218.03 172.20 237.16 159.98 248.99 C 151.56 258.03 138.17 261.89 126.22 258.83 C 118.83 257.32 112.80 252.47 107.86 247.01 C 108.11 262.00 108.01 277.00 107.96 292.00 L 93.26 292.00 C 93.36 254.36 93.29 216.73 93.29 179.09 C 98.06 178.94 102.83 178.95 107.60 179.12 C 107.64 182.43 107.69 185.73 107.79 189.04 C 110.64 186.11 113.50 183.12 116.99 180.95 Z" />
<path fill="#6e6e6e" d=" M 209.40 176.49 C 216.69 175.67 224.31 176.06 231.17 178.85 C 238.27 181.78 244.63 187.07 247.83 194.16 C 250.39 199.72 250.94 205.94 250.88 212.00 C 250.80 227.05 250.90 242.09 250.84 257.14 C 246.16 257.39 241.48 257.39 236.80 257.17 C 236.70 253.47 236.67 249.78 236.70 246.08 C 232.90 250.85 228.57 255.57 222.66 257.64 C 209.68 262.60 192.60 259.45 184.71 247.29 C 179.61 239.08 179.58 227.93 184.75 219.75 C 187.87 214.79 192.96 211.44 198.27 209.21 C 208.03 205.27 219.14 204.88 229.22 207.88 C 231.78 208.61 234.32 209.40 236.89 210.08 C 236.52 205.56 235.97 200.70 232.87 197.14 C 223.98 186.07 203.45 187.55 197.39 200.87 C 192.85 199.24 188.41 197.32 183.99 195.38 C 188.30 185.20 198.41 177.71 209.40 176.49 Z" />
<path fill="#6e6e6e" d=" M 334.20 177.20 C 343.65 174.80 354.67 176.20 362.20 182.78 C 367.72 187.57 370.28 194.72 372.00 201.62 L 372.00 257.29 C 367.07 257.34 362.14 257.31 357.21 257.13 C 357.05 241.07 357.39 225.01 357.12 208.96 C 357.07 202.06 354.15 194.39 347.41 191.52 C 340.54 188.76 331.81 189.03 326.01 194.05 C 320.30 198.96 317.50 206.58 317.38 213.99 C 317.16 228.38 317.66 242.79 317.20 257.18 C 312.41 257.35 307.62 257.36 302.84 257.19 C 302.57 231.14 302.58 205.08 302.83 179.03 C 307.46 178.94 312.10 178.96 316.73 179.07 C 316.80 182.42 316.85 185.76 316.96 189.11 C 321.63 183.84 327.19 178.94 334.20 177.20 Z" />
<path fill="#6e6e6e" d=" M 268.75 179.05 C 273.74 178.91 278.73 178.92 283.71 179.14 C 283.61 205.10 283.66 231.06 283.68 257.01 C 278.72 257.42 273.73 257.43 268.76 257.15 C 268.49 231.12 268.52 205.08 268.75 179.05 Z" />
<path fill="#ffffff" d=" M 126.36 190.47 C 132.29 189.25 138.81 189.68 144.10 192.83 C 151.37 196.91 156.09 204.79 156.99 213.00 C 157.75 219.98 157.15 227.43 153.53 233.59 C 149.37 240.82 141.55 246.24 133.03 246.15 C 124.13 246.70 115.52 241.42 111.24 233.74 C 107.37 226.92 107.03 218.69 108.15 211.09 C 109.57 201.51 116.83 192.80 126.36 190.47 Z" />
<path fill="#ffffff" d=" M 198.26 227.23 C 200.89 222.62 205.94 219.85 211.08 219.03 C 219.82 217.75 229.31 218.32 236.88 223.30 C 236.43 235.95 224.56 246.74 211.97 246.16 C 206.79 246.12 201.40 243.99 198.24 239.76 C 195.61 236.08 196.10 231.00 198.26 227.23 Z" />
</svg>
